<svg width="31" height="31" viewBox="0 0 31 31" fill="none" xmlns="http://www.w3.org/2000/svg">
<path d="M15.0272 0.335388C6.75997 0.335388 0.0328369 7.06065 0.0328369 15.3288C0.0328369 23.597 6.75997 30.3223 15.0272 30.3223C23.2945 30.3223 30.0216 23.597 30.0216 15.3288C30.0216 7.06065 23.2945 0.335388 15.0272 0.335388ZM15.0272 29.3236C7.31075 29.3236 1.0334 23.0453 1.0334 15.3288C1.0334 7.61237 7.31075 1.33408 15.0272 1.33408C22.7437 1.33408 29.021 7.61237 29.021 15.3288C29.021 23.0453 22.7437 29.3236 15.0272 29.3236Z" fill="white"/>
<path d="M18.2999 6.91287H15.805C12.6275 6.88108 12.2217 8.8476 12.2217 10.9759V12.5235H10.8191C10.7557 12.515 10.6912 12.5213 10.6306 12.5418C10.57 12.5623 10.5149 12.5965 10.4697 12.6417C10.4245 12.6869 10.3903 12.742 10.3698 12.8026C10.3493 12.8631 10.343 12.9276 10.3515 12.991V15.7964C10.343 15.8598 10.3493 15.9242 10.3698 15.9848C10.3903 16.0454 10.4245 16.1005 10.4697 16.1457C10.5149 16.1909 10.57 16.2251 10.6306 16.2456C10.6912 16.2661 10.7557 16.2724 10.8191 16.2639H12.2217V23.2772C12.2139 23.3407 12.2207 23.4051 12.2417 23.4656C12.2626 23.5261 12.2971 23.581 12.3424 23.6261C12.3878 23.6712 12.4429 23.7053 12.5035 23.7259C12.5641 23.7465 12.6286 23.7529 12.6921 23.7447H15.5488C15.8247 23.7765 16.0482 23.553 15.9603 23.2772L15.9621 16.2639H18.2999C18.3633 16.2724 18.4278 16.2661 18.4884 16.2456C18.5489 16.2251 18.604 16.1909 18.6492 16.1457C18.6944 16.1005 18.7286 16.0454 18.7491 15.9848C18.7696 15.9242 18.7759 15.8598 18.7674 15.7964V12.991C18.7759 12.9276 18.7696 12.8631 18.7491 12.8026C18.7286 12.742 18.6944 12.6869 18.6492 12.6417C18.604 12.5965 18.5489 12.5623 18.4884 12.5418C18.4278 12.5213 18.3633 12.515 18.2999 12.5235H15.9593L15.9621 11.1208C16.0528 10.5233 16.0528 10.6206 16.6073 10.6533H18.2802C18.4102 10.6243 18.5486 10.6402 18.6459 10.5457C18.7431 10.4513 18.7992 10.3223 18.7665 10.1857V7.38042C18.7751 7.31708 18.769 7.25259 18.7486 7.192C18.7283 7.1314 18.6942 7.07633 18.649 7.03108C18.6038 6.98583 18.5488 6.95162 18.4883 6.93111C18.4277 6.91061 18.3632 6.90437 18.2999 6.91287ZM17.7996 9.66581L16.627 9.62093C15.1748 9.62093 15.0532 10.4092 15.0532 11.2162L15.0495 12.9892C15.0493 13.0548 15.0622 13.1199 15.0872 13.1806C15.1122 13.2412 15.149 13.2964 15.1954 13.3429C15.2418 13.3893 15.2969 13.4262 15.3575 13.4514C15.4181 13.4765 15.4832 13.4895 15.5488 13.4895H17.8323V15.2961H15.5507C15.4182 15.2961 15.2911 15.3487 15.1973 15.4423C15.1035 15.5359 15.0506 15.6629 15.0504 15.7954L15.0495 22.8096H13.1568V15.7964C13.1568 15.5205 12.9689 15.297 12.6921 15.297H11.2866V13.4904H12.6921C12.7577 13.4905 12.8227 13.4777 12.8833 13.4526C12.944 13.4276 12.9991 13.3909 13.0455 13.3445C13.139 13.2501 13.1559 13.1229 13.1559 12.9901V10.975C13.1559 8.87846 13.5795 7.87977 15.8041 7.87977H17.7987V9.66581H17.7996Z" fill="white"/>
</svg>
