<svg width="30" height="31" viewBox="0 0 30 31" fill="none" xmlns="http://www.w3.org/2000/svg">
<path d="M30 10.9146C30 13.6148 30 16.3151 30 19.0154C29.9769 19.3658 29.9595 19.7169 29.9293 20.0666C29.8483 21.004 29.8193 21.951 29.6663 22.8769C29.0491 26.5994 26.1778 29.3293 22.4289 29.7337C21.0684 29.8803 19.6939 29.8912 18.3257 29.9658C18.1881 29.9735 18.0505 29.9941 17.9129 30.0089C15.9842 30.0089 14.0554 30.0089 12.1266 30.0089C11.9781 29.9941 11.8302 29.9748 11.6817 29.9658C10.1766 29.87 8.65092 29.8989 7.16961 29.6565C3.95947 29.1313 1.75294 27.2925 0.648392 24.2039C0.173911 22.8762 0.0781146 21.4811 0.0568979 20.0885C0.0163934 17.3998 -0.0221819 14.7104 0.015108 12.0217C0.0376105 10.3867 0.0800433 8.73503 0.330142 7.12449C0.77312 4.26797 2.35858 2.17524 5.00487 0.942746C6.46175 0.264458 8.02792 0.087653 9.6076 0.0632218C12.414 0.0188598 15.221 -0.00492865 18.0274 0.000857702C19.6752 0.00471527 21.3333 -0.0107152 22.9574 0.319107C26.3102 0.999324 28.5181 2.96475 29.4869 6.27004C29.8238 7.42024 29.8772 8.60966 29.9293 9.79779C29.946 10.1713 29.9762 10.5429 30 10.9146ZM15.0153 1.23271C15.0146 1.24942 15.0146 1.26678 15.014 1.2835C14.0072 1.2835 12.999 1.26357 11.9929 1.288C10.4093 1.32722 8.8168 1.27771 7.25384 1.59146C4.40052 2.16367 2.53024 3.83592 1.73237 6.65194C1.38197 7.88894 1.33954 9.16965 1.3299 10.4426C1.30675 13.4638 1.30096 16.4855 1.33375 19.506C1.34533 20.5514 1.40833 21.6109 1.59285 22.6377C2.11813 25.554 3.82446 27.4564 6.6977 28.2582C7.92506 28.6008 9.19613 28.6407 10.4582 28.651C13.4793 28.6754 16.5011 28.6799 19.5222 28.6478C20.5464 28.6368 21.5828 28.5693 22.5909 28.3951C25.4956 27.8917 27.4116 26.2188 28.2435 23.3661C28.5759 22.2256 28.6312 21.0432 28.6473 19.866C28.682 17.349 28.7135 14.8306 28.6865 12.3136C28.6698 10.7628 28.619 9.20501 28.4467 7.6652C28.1934 5.40916 27.0837 3.63404 25.1131 2.45041C23.9179 1.73226 22.5845 1.45837 21.215 1.40115C19.1493 1.31629 17.0816 1.28607 15.0153 1.23271Z" fill="white"/>
<path d="M30 10.9146C30 13.6148 30 16.3151 30 19.0154C29.9769 19.3658 29.9595 19.7169 29.9293 20.0666C29.8483 21.004 29.8193 21.951 29.6663 22.8769C29.0491 26.5994 26.1778 29.3293 22.4289 29.7337C21.0684 29.8803 19.6939 29.8912 18.3257 29.9658C18.1881 29.9735 18.0505 29.9941 17.9129 30.0089C15.9842 30.0089 14.0554 30.0089 12.1266 30.0089C11.9781 29.9941 11.8302 29.9748 11.6817 29.9658C10.1766 29.87 8.65092 29.8989 7.16961 29.6565C3.95947 29.1313 1.75294 27.2925 0.648392 24.2039C0.173911 22.8762 0.0781146 21.4811 0.0568979 20.0885C0.0163934 17.3998 -0.0221819 14.7104 0.015108 12.0217C0.0376105 10.3867 0.0800433 8.73503 0.330142 7.12449C0.77312 4.26797 2.35858 2.17524 5.00487 0.942746C6.46175 0.264458 8.02792 0.087653 9.6076 0.0632218C12.414 0.0188598 15.221 -0.00492865 18.0274 0.000857702C19.6752 0.00471527 21.3333 -0.0107152 22.9574 0.319107C26.3102 0.999324 28.5181 2.96475 29.4869 6.27004C29.8238 7.42024 29.8772 8.60966 29.9293 9.79779C29.946 10.1713 29.9762 10.5429 30 10.9146ZM15.0153 1.23271C15.0146 1.24942 15.0146 1.26678 15.014 1.2835C14.0072 1.2835 12.999 1.26357 11.9929 1.288C10.4093 1.32722 8.8168 1.27771 7.25384 1.59146C4.40052 2.16367 2.53024 3.83592 1.73237 6.65194C1.38197 7.88894 1.33954 9.16965 1.3299 10.4426C1.30675 13.4638 1.30096 16.4855 1.33375 19.506C1.34533 20.5514 1.40833 21.6109 1.59285 22.6377C2.11813 25.554 3.82446 27.4564 6.6977 28.2582C7.92506 28.6008 9.19613 28.6407 10.4582 28.651C13.4793 28.6754 16.5011 28.6799 19.5222 28.6478C20.5464 28.6368 21.5828 28.5693 22.5909 28.3951C25.4956 27.8917 27.4116 26.2188 28.2435 23.3661C28.5759 22.2256 28.6312 21.0432 28.6473 19.866C28.682 17.349 28.7135 14.8306 28.6865 12.3136C28.6698 10.7628 28.619 9.20501 28.4467 7.6652C28.1934 5.40916 27.0837 3.63404 25.1131 2.45041C23.9179 1.73226 22.5845 1.45837 21.215 1.40115C19.1493 1.31629 17.0816 1.28607 15.0153 1.23271Z" fill="url(#paint0_linear)"/>
<path d="M22.9927 15.0068C22.9863 19.4533 19.4071 23.0036 14.9413 22.9933C10.5572 22.9836 6.98058 19.3878 6.98958 14.9991C6.99858 10.5186 10.5533 6.9844 15.0455 6.9889C19.4502 6.9934 22.9992 10.5739 22.9927 15.0068ZM14.9941 8.27089C11.3024 8.27025 8.28251 11.2792 8.27222 14.9683C8.26194 18.6632 11.2953 21.7049 14.9928 21.7074C18.6755 21.7094 21.7069 18.6844 21.7114 15.0023C21.7159 11.2939 18.6999 8.27154 14.9941 8.27089Z" fill="white"/>
<path d="M22.9927 15.0068C22.9863 19.4533 19.4071 23.0036 14.9413 22.9933C10.5572 22.9836 6.98058 19.3878 6.98958 14.9991C6.99858 10.5186 10.5533 6.9844 15.0455 6.9889C19.4502 6.9934 22.9992 10.5739 22.9927 15.0068ZM14.9941 8.27089C11.3024 8.27025 8.28251 11.2792 8.27222 14.9683C8.26194 18.6632 11.2953 21.7049 14.9928 21.7074C18.6755 21.7094 21.7069 18.6844 21.7114 15.0023C21.7159 11.2939 18.6999 8.27154 14.9941 8.27089Z" fill="url(#paint1_linear)"/>
<path d="M20.2943 7.30647C20.3001 6.01418 21.3558 4.96299 22.6487 4.96106C23.9481 4.95913 25.0205 6.03411 25.0167 7.33347C25.0128 8.63862 23.9481 9.69174 22.6378 9.68724C21.3282 9.68402 20.2885 8.62705 20.2943 7.30647ZM22.6468 6.26235C22.0585 6.26492 21.5815 6.73426 21.5751 7.3174C21.5686 7.90439 22.0701 8.40909 22.6565 8.40588C23.2505 8.40267 23.7237 7.91147 23.7167 7.30583C23.7102 6.70854 23.2492 6.25978 22.6468 6.26235Z" fill="white"/>
<path d="M20.2943 7.30647C20.3001 6.01418 21.3558 4.96299 22.6487 4.96106C23.9481 4.95913 25.0205 6.03411 25.0167 7.33347C25.0128 8.63862 23.9481 9.69174 22.6378 9.68724C21.3282 9.68402 20.2885 8.62705 20.2943 7.30647ZM22.6468 6.26235C22.0585 6.26492 21.5815 6.73426 21.5751 7.3174C21.5686 7.90439 22.0701 8.40909 22.6565 8.40588C23.2505 8.40267 23.7237 7.91147 23.7167 7.30583C23.7102 6.70854 23.2492 6.25978 22.6468 6.26235Z" fill="url(#paint2_linear)"/>
<defs>
<linearGradient id="paint0_linear" x1="15" y1="0" x2="15" y2="30.0089" gradientUnits="userSpaceOnUse">
<stop stop-color="white"/>
<stop offset="1" stop-color="white" stop-opacity="0"/>
</linearGradient>
<linearGradient id="paint1_linear" x1="14.9912" y1="6.98889" x2="14.9912" y2="22.9933" gradientUnits="userSpaceOnUse">
<stop stop-color="white"/>
<stop offset="1" stop-color="white" stop-opacity="0"/>
</linearGradient>
<linearGradient id="paint2_linear" x1="22.6555" y1="4.96106" x2="22.6555" y2="9.68725" gradientUnits="userSpaceOnUse">
<stop stop-color="white"/>
<stop offset="1" stop-color="white" stop-opacity="0"/>
</linearGradient>
</defs>
</svg>
