<svg width="46" height="46" viewBox="0 0 46 46" fill="none" xmlns="http://www.w3.org/2000/svg">
<path d="M40 38L39.5 38.5L25.472 21.32L20.624 25.928L20.672 45L19.712 45.1655V0.303999H20.672V23.48L20.624 24.824L38.912 7.304L39.5 8L26.192 20.696L40 38Z" fill="#1A1A1A"/>
<path d="M31.5 44L23.456 30.4C22.368 30.656 21.216 30.784 20 30.784H14.672V44H13.712V12.304H20.624C22.064 12.304 23.536 12.624 25.04 13.264C26.576 13.872 27.856 14.848 28.88 16.192C29.904 17.536 30.416 19.232 30.416 21.28C30.416 23.296 29.92 25.12 28.928 26.752C27.968 28.352 26.464 29.488 24.416 30.16L32.5 43.5L31.5 44ZM19.856 29.872C23.312 29.872 25.776 29.04 27.248 27.376C28.72 25.712 29.456 23.696 29.456 21.328C29.456 19.76 29.056 18.368 28.256 17.152C27.488 15.904 26.432 14.944 25.088 14.272C23.744 13.568 22.272 13.216 20.672 13.216H14.672V29.872H19.856Z" fill="#1A1A1A"/>
<circle cx="23" cy="23" r="22.5" stroke="black"/>
</svg>
