<svg width="14" height="26" viewBox="0 0 14 26" fill="none" xmlns="http://www.w3.org/2000/svg">
<path d="M0.5 7C0.5 3.41015 3.41015 0.5 7 0.5C10.5899 0.5 13.5 3.41015 13.5 7V19C13.5 22.5899 10.5899 25.5 7 25.5C3.41015 25.5 0.5 22.5899 0.5 19V7Z" stroke="white"/>
<path d="M6.25 5C6.25 4.58579 6.58579 4.25 7 4.25C7.41421 4.25 7.75 4.58579 7.75 5V8C7.75 8.41421 7.41421 8.75 7 8.75C6.58579 8.75 6.25 8.41421 6.25 8V5Z" fill="white" stroke="white" stroke-width="0.5"/>
<line x1="1" y1="11.5" x2="13" y2="11.5" stroke="white"/>
</svg>
