<svg width="31" height="31" viewBox="0 0 31 31" fill="none" xmlns="http://www.w3.org/2000/svg">
<path d="M15.0262 0.542908C6.74143 0.542908 0 7.28246 0 15.5682C0 23.854 6.74143 30.5935 15.0262 30.5935C23.3111 30.5935 30.0525 23.854 30.0525 15.5682C30.0525 7.28246 23.3111 0.542908 15.0262 0.542908ZM15.0262 29.5927C7.29338 29.5927 1.00269 23.3011 1.00269 15.5682C1.00269 7.83535 7.29338 1.54372 15.0262 1.54372C22.7591 1.54372 29.0498 7.83535 29.0498 15.5682C29.0498 23.3011 22.7591 29.5927 15.0262 29.5927Z" fill="white"/>
<path d="M23.267 10.9259C23.3709 10.7335 23.4566 10.5317 23.5228 10.3233C23.5535 10.2266 23.5541 10.1229 23.5246 10.0259C23.4951 9.92887 23.4369 9.84307 23.3576 9.77982C23.2783 9.71658 23.1817 9.67887 23.0805 9.67167C22.9794 9.66447 22.8784 9.68812 22.791 9.7395C22.3108 10.0248 21.791 10.2373 21.2485 10.3702C20.59 9.77583 19.7348 9.44635 18.8477 9.44525C18.3658 9.44562 17.8889 9.5433 17.4456 9.73243C17.0023 9.92157 16.6018 10.1983 16.2681 10.5459C15.9343 10.8936 15.6742 11.3051 15.5033 11.7557C15.3325 12.2063 15.2543 12.6868 15.2736 13.1683C13.1661 12.903 11.2416 11.8366 9.89941 10.1902C9.84799 10.1279 9.78227 10.0788 9.70783 10.0473C9.6334 10.0158 9.55245 10.0027 9.47187 10.0091C9.39129 10.0155 9.31345 10.0413 9.24497 10.0843C9.17649 10.1272 9.11939 10.1861 9.07852 10.2558C8.77118 10.7833 8.60413 11.3808 8.5933 11.9912C8.58247 12.6017 8.72823 13.2047 9.01667 13.7428C8.94593 13.7547 8.87797 13.7795 8.81614 13.8158C8.74037 13.8642 8.67799 13.9308 8.63475 14.0096C8.59152 14.0883 8.56882 14.1767 8.56875 14.2666C8.56875 15.3302 9.04198 16.3066 9.80477 16.9701L9.77197 17.0029C9.71438 17.068 9.67476 17.1471 9.65702 17.2322C9.63927 17.3173 9.64401 17.4056 9.67076 17.4883C9.82982 17.9845 10.0954 18.44 10.4489 18.8228C10.8025 19.2056 11.2354 19.5065 11.7174 19.7045C10.7274 20.1874 9.61956 20.3758 8.52564 20.2471C8.41319 20.2356 8.30012 20.2618 8.20414 20.3215C8.10816 20.3812 8.03469 20.471 7.99525 20.577C7.95737 20.6837 7.95666 20.8 7.99323 20.9072C8.0298 21.0144 8.10151 21.106 8.19672 21.1673C9.68389 22.1218 11.414 22.6289 13.1811 22.6282C18.9723 22.6282 22.4339 17.9241 22.4339 13.3763L22.433 13.2227C22.9943 12.7845 23.4818 12.2593 23.8771 11.6671C23.9369 11.5776 23.9664 11.4711 23.961 11.3636C23.9557 11.256 23.9158 11.153 23.8474 11.0699C23.7789 10.9867 23.6855 10.9278 23.581 10.9019C23.4765 10.8759 23.3664 10.8843 23.267 10.9259ZM21.6318 12.5704C21.5638 12.6193 21.5091 12.6845 21.4728 12.76C21.4364 12.8354 21.4196 12.9188 21.4238 13.0024C21.4294 13.1261 21.4322 13.2517 21.4322 13.3754C21.4322 17.4311 18.3463 21.6265 13.182 21.6265C12.261 21.6269 11.3464 21.4723 10.4767 21.1692C11.5183 20.9696 12.4969 20.5229 13.3301 19.8666C13.4112 19.8027 13.4706 19.7152 13.5001 19.6163C13.5296 19.5173 13.5279 19.4116 13.4951 19.3137C13.4622 19.2157 13.4 19.1303 13.3168 19.0691C13.2336 19.0079 13.1335 18.9739 13.0302 18.9717C12.6262 18.964 12.2296 18.8614 11.8725 18.6723C11.5153 18.4831 11.2077 18.2127 10.9743 17.8828C11.2113 17.8669 11.4437 17.8275 11.6696 17.7666C11.7789 17.7374 11.875 17.6719 11.9424 17.581C12.0097 17.4901 12.0442 17.379 12.0403 17.2659C12.0364 17.1528 11.9943 17.0444 11.9208 16.9584C11.8474 16.8723 11.7469 16.8137 11.6358 16.792C11.1795 16.6992 10.757 16.4841 10.4135 16.1696C10.07 15.8552 9.81845 15.4533 9.68576 15.0069C9.93502 15.0697 10.1908 15.1062 10.4467 15.1147C10.6669 15.1137 10.8712 14.9788 10.9396 14.767C11.008 14.5552 10.9274 14.3219 10.7409 14.1982C10.3 13.9044 9.9605 13.4817 9.76879 12.9878C9.57709 12.4938 9.54253 11.9528 9.66983 11.4384C11.2976 13.1086 13.4955 14.1032 15.8246 14.2235C15.9896 14.2244 16.1339 14.1654 16.2341 14.0445C16.3344 13.9236 16.3728 13.7634 16.3372 13.6097C16.2091 13.0577 16.2664 12.4789 16.5003 11.9629C16.7343 11.4468 17.1318 11.0222 17.6314 10.7548C18.1309 10.4874 18.7047 10.3921 19.2639 10.4837C19.8231 10.5752 20.3365 10.8486 20.7247 11.2613C20.7829 11.3234 20.8559 11.3697 20.9369 11.3957C21.0179 11.4218 21.1041 11.4268 21.1876 11.4103C21.3422 11.3794 21.495 11.3438 21.6458 11.3026C21.5778 11.3535 21.5071 11.4007 21.4341 11.4441C21.3369 11.5036 21.2629 11.5944 21.2243 11.7017C21.1856 11.8089 21.1847 11.926 21.2216 12.0339C21.2585 12.1417 21.331 12.2337 21.4272 12.2948C21.5234 12.3559 21.6375 12.3824 21.7508 12.3699L21.9213 12.3484C21.8274 12.4257 21.7309 12.4998 21.6318 12.5704Z" fill="white"/>
</svg>
