<svg width="0" height="0" class="hidden">
  <symbol xmlns="http://www.w3.org/2000/svg" viewBox="0 0 30 31" id="instagram">
    <path d="M30 10.915v8.1c-.023.35-.04.702-.07 1.052-.082.937-.11 1.884-.264 2.81-.617 3.722-3.488 6.452-7.237 6.857-1.36.146-2.735.157-4.103.232-.138.008-.276.028-.413.043h-5.786c-.149-.015-.297-.034-.445-.043-1.505-.096-3.031-.067-4.512-.31-3.21-.525-5.417-2.363-6.522-5.452-.474-1.328-.57-2.723-.591-4.116-.04-2.688-.08-5.378-.042-8.066.023-1.635.065-3.287.315-4.898C.773 4.268 2.36 2.175 5.005.943 6.462.264 8.028.088 9.608.063a471.27 471.27 0 018.42-.062c1.647.004 3.305-.012 4.93.318 3.352.68 5.56 2.646 6.529 5.951.337 1.15.39 2.34.442 3.528.017.373.047.745.071 1.117zM15.015 1.233l-.001.05c-1.007 0-2.015-.02-3.021.005-1.584.04-3.176-.01-4.74.303-2.852.573-4.723 2.245-5.52 5.06-.351 1.238-.393 2.519-.403 3.792-.023 3.02-.029 6.042.004 9.063.011 1.045.074 2.105.259 3.132.525 2.916 2.231 4.818 5.105 5.62 1.227.343 2.498.383 3.76.393 3.021.024 6.043.029 9.064-.003 1.024-.011 2.06-.079 3.069-.253 2.905-.503 4.82-2.176 5.652-5.029.333-1.14.388-2.323.404-3.5.035-2.517.067-5.035.04-7.552-.017-1.551-.068-3.109-.24-4.649-.254-2.256-1.363-4.031-3.334-5.215-1.195-.718-2.529-.992-3.898-1.049-2.066-.085-4.133-.115-6.2-.168z"></path>
    <path d="M30 10.915v8.1c-.023.35-.04.702-.07 1.052-.082.937-.11 1.884-.264 2.81-.617 3.722-3.488 6.452-7.237 6.857-1.36.146-2.735.157-4.103.232-.138.008-.276.028-.413.043h-5.786c-.149-.015-.297-.034-.445-.043-1.505-.096-3.031-.067-4.512-.31-3.21-.525-5.417-2.363-6.522-5.452-.474-1.328-.57-2.723-.591-4.116-.04-2.688-.08-5.378-.042-8.066.023-1.635.065-3.287.315-4.898C.773 4.268 2.36 2.175 5.005.943 6.462.264 8.028.088 9.608.063a471.27 471.27 0 018.42-.062c1.647.004 3.305-.012 4.93.318 3.352.68 5.56 2.646 6.529 5.951.337 1.15.39 2.34.442 3.528.017.373.047.745.071 1.117zM15.015 1.233l-.001.05c-1.007 0-2.015-.02-3.021.005-1.584.04-3.176-.01-4.74.303-2.852.573-4.723 2.245-5.52 5.06-.351 1.238-.393 2.519-.403 3.792-.023 3.02-.029 6.042.004 9.063.011 1.045.074 2.105.259 3.132.525 2.916 2.231 4.818 5.105 5.62 1.227.343 2.498.383 3.76.393 3.021.024 6.043.029 9.064-.003 1.024-.011 2.06-.079 3.069-.253 2.905-.503 4.82-2.176 5.652-5.029.333-1.14.388-2.323.404-3.5.035-2.517.067-5.035.04-7.552-.017-1.551-.068-3.109-.24-4.649-.254-2.256-1.363-4.031-3.334-5.215-1.195-.718-2.529-.992-3.898-1.049-2.066-.085-4.133-.115-6.2-.168z"></path>
    <path d="M22.993 15.007c-.007 4.446-3.586 7.997-8.052 7.986-4.384-.01-7.96-3.605-7.951-7.994.009-4.48 3.563-8.015 8.056-8.01 4.404.004 7.953 3.585 7.947 8.018zM14.994 8.27c-3.692 0-6.711 3.008-6.722 6.697-.01 3.695 3.023 6.737 6.72 6.74 3.683.001 6.715-3.024 6.72-6.706.004-3.708-3.012-6.73-6.718-6.731z"></path>
    <path d="M22.993 15.007c-.007 4.446-3.586 7.997-8.052 7.986-4.384-.01-7.96-3.605-7.951-7.994.009-4.48 3.563-8.015 8.056-8.01 4.404.004 7.953 3.585 7.947 8.018zM14.994 8.27c-3.692 0-6.711 3.008-6.722 6.697-.01 3.695 3.023 6.737 6.72 6.74 3.683.001 6.715-3.024 6.72-6.706.004-3.708-3.012-6.73-6.718-6.731z"></path>
    <path d="M20.294 7.306a2.362 2.362 0 012.355-2.345 2.379 2.379 0 012.368 2.372 2.365 2.365 0 01-2.38 2.354 2.347 2.347 0 01-2.343-2.38zm2.353-1.044a1.071 1.071 0 00-1.072 1.055 1.095 1.095 0 001.082 1.089 1.074 1.074 0 001.06-1.1 1.04 1.04 0 00-1.07-1.044z"></path>
    <path d="M20.294 7.306a2.362 2.362 0 012.355-2.345 2.379 2.379 0 012.368 2.372 2.365 2.365 0 01-2.38 2.354 2.347 2.347 0 01-2.343-2.38zm2.353-1.044a1.071 1.071 0 00-1.072 1.055 1.095 1.095 0 001.082 1.089 1.074 1.074 0 001.06-1.1 1.04 1.04 0 00-1.07-1.044z"></path>
  </symbol>
  <symbol fill="none" xmlns="http://www.w3.org/2000/svg" viewBox="0 0 46 46" id="logo">
    <path d="M40 38l-.5.5-14.028-17.18-4.848 4.608L20.672 45l-.96.166V.303h.96V23.48l-.048 1.344 18.288-17.52L39.5 8 26.192 20.696 40 38z" fill="currentColor"></path> 
    <path d="M31.5 44l-8.044-13.6a15.05 15.05 0 01-3.456.384h-5.328V44h-.96V12.304h6.912c1.44 0 2.912.32 4.416.96 1.536.608 2.816 1.584 3.84 2.928 1.024 1.344 1.536 3.04 1.536 5.088 0 2.016-.496 3.84-1.488 5.472-.96 1.6-2.464 2.736-4.512 3.408L32.5 43.5l-1 .5zM19.856 29.872c3.456 0 5.92-.832 7.392-2.496 1.472-1.664 2.208-3.68 2.208-6.048 0-1.568-.4-2.96-1.2-4.176-.768-1.248-1.824-2.208-3.168-2.88-1.344-.704-2.816-1.056-4.416-1.056h-6v16.656h5.184z" fill="currentColor"></path>
    <circle cx="23" cy="23" r="22.5" stroke="currentColor"></circle>
  </symbol>
  <symbol fill="none" xmlns="http://www.w3.org/2000/svg" viewBox="0 0 14 26" id="scroll">
    <path d="M.5 7a6.5 6.5 0 0113 0v12a6.5 6.5 0 11-13 0V7z" stroke="currentColor"></path>
    <path d="M6.25 5a.75.75 0 011.5 0v3a.75.75 0 01-1.5 0V5z" fill="currentColor" stroke="currentColor" stroke-width=".5"></path>
    <path stroke="currentColor" d="M1 11.5h12"></path>
  </symbol>
  <symbol xmlns="http://www.w3.org/2000/svg" viewBox="0 0 31 31" id="twitter">
    <path d="M15.026.543C6.741.543 0 7.283 0 15.568c0 8.286 6.741 15.025 15.026 15.025s15.026-6.739 15.026-15.025c0-8.286-6.74-15.025-15.026-15.025zm0 29.05c-7.733 0-14.023-6.292-14.023-14.025 0-7.733 6.29-14.024 14.023-14.024S29.05 7.835 29.05 15.568c0 7.733-6.29 14.025-14.024 14.025z"></path>
    <path d="M23.267 10.926c.104-.193.19-.394.256-.603a.501.501 0 00-.732-.584c-.48.286-1 .498-1.543.631a3.58 3.58 0 00-5.975 2.798A8.266 8.266 0 019.9 10.19a.502.502 0 00-.82.066 3.573 3.573 0 00-.062 3.487.59.59 0 00-.2.073.536.536 0 00-.248.45c0 1.064.473 2.04 1.236 2.704l-.033.033a.5.5 0 00-.101.485 3.576 3.576 0 002.046 2.216 5.748 5.748 0 01-3.191.543.51.51 0 00-.53.33.502.502 0 00.2.59 9.221 9.221 0 004.985 1.461c5.791 0 9.253-4.704 9.253-9.252l-.001-.153a6.675 6.675 0 001.444-1.556.501.501 0 00-.61-.741zm-1.635 1.644a.501.501 0 00-.208.432c.005.124.008.25.008.373 0 4.056-3.086 8.252-8.25 8.252a8.21 8.21 0 01-2.705-.458 6.627 6.627 0 002.853-1.302.501.501 0 00-.3-.895 2.579 2.579 0 01-2.056-1.09 3.6 3.6 0 00.696-.115.5.5 0 00-.034-.975 2.568 2.568 0 01-1.95-1.785c.249.063.505.1.76.108a.516.516 0 00.494-.348.5.5 0 00-.2-.569 2.574 2.574 0 01-1.07-2.76 9.261 9.261 0 006.155 2.785.51.51 0 00.41-.179c.1-.12.138-.28.102-.434a2.578 2.578 0 014.388-2.349.5.5 0 00.463.15 6.78 6.78 0 00.458-.108 2.4 2.4 0 01-.212.141.5.5 0 00.317.926l.17-.022c-.094.078-.19.152-.29.222z"></path>
  </symbol>
  <symbol xmlns="http://www.w3.org/2000/svg" viewBox="0 0 31 31" id="fb">
    <path d="M15.027.335C6.76.335.033 7.061.033 15.33S6.76 30.322 15.027 30.322c8.268 0 14.995-6.725 14.995-14.993S23.295.335 15.027.335zm0 28.989c-7.716 0-13.994-6.279-13.994-13.995 0-7.717 6.278-13.995 13.994-13.995 7.717 0 13.994 6.278 13.994 13.995 0 7.716-6.277 13.995-13.994 13.995z"></path>
    <path d="M18.3 6.913h-2.495c-3.178-.032-3.583 1.935-3.583 4.063v1.547h-1.403a.416.416 0 00-.468.468v2.805a.415.415 0 00.468.468h1.403v7.013a.419.419 0 00.47.468h2.857c.276.031.5-.192.411-.468l.002-7.013H18.3a.416.416 0 00.467-.468v-2.805a.415.415 0 00-.467-.467h-2.34l.002-1.403c.09-.598.09-.5.645-.468h1.673c.13-.029.269-.013.366-.107.097-.095.153-.224.12-.36V7.38a.415.415 0 00-.466-.467zm-.5 2.753l-1.173-.045c-1.452 0-1.574.788-1.574 1.595l-.004 1.773a.499.499 0 00.5.5h2.283v1.807h-2.281a.5.5 0 00-.5.5l-.002 7.014h-1.892v-7.014c0-.275-.188-.499-.465-.499h-1.405V13.49h1.405a.498.498 0 00.354-.146c.093-.094.11-.221.11-.354v-2.015c0-2.097.423-3.095 2.648-3.095H17.8v1.786z"></path>
  </symbol>
</svg>